<?xml version="1.0"?>
<svg xmlns="http://www.w3.org/2000/svg" xmlns:xlink="http://www.w3.org/1999/xlink" version="1.1" id="Capa_1" x="0px" y="0px" viewBox="0 0 332.8 332.8" style="enable-background:new 0 0 332.8 332.8;" xml:space="preserve" width="512px" height="512px" class=""><g><g>
	<g>
		<path d="M251.2,0H81.6C70.8,0,62.4,8.8,62.4,19.2v294.4c0,10.8,8.8,19.2,19.2,19.2h169.6c10.8,0,19.2-8.8,19.2-19.2V19.2    C270.4,8.4,262,0,251.2,0z M257.6,313.6c0,3.6-2.8,6.4-6.4,6.4H81.6c-3.6,0-6.4-2.8-6.4-6.4V19.2c0-3.6,2.8-6.4,6.4-6.4h169.6    c3.6,0,6.4,2.8,6.4,6.4V313.6z" data-original="#000000" class="active-path" data-old_color="#ffc15e" fill="#ffc15e"/>
	</g>
</g><g>
	<g>
		<path d="M225.6,48.4H107.2c-8.4,0-15.2,6.8-15.2,15.2v205.2c0,8.4,6.8,15.2,15.2,15.2h118.4c8.4,0,15.2-6.8,15.2-15.2V63.6    C240.8,55.2,234,48.4,225.6,48.4z M228,269.2c0,1.2-1.2,2.4-2.4,2.4H107.2c-1.2,0-2.4-1.2-2.4-2.4V63.6c0-1.2,1.2-2.4,2.4-2.4    h118.4c1.2,0,2.4,1.2,2.4,2.4V269.2z" data-original="#000000" class="active-path" data-old_color="#ffc15e" fill="#ffc15e"/>
	</g>
</g><g>
	<g>
		<path d="M189.2,178.4c-0.4-1.2-0.8-2.8-1.2-4c-0.4-1.2-1.2-2.4-2-3.2c-0.8-1.2-1.6-2-2.8-2.8s-2-2-3.2-2.8    c-1.2-0.8-2.4-1.6-3.6-2.4s-2.8-1.6-4-2c-1.6-0.8-2.8-1.2-4.4-1.6c-0.8-0.4-1.6-0.4-2-0.8c-0.8-0.4-1.6-0.8-2-0.8    c-0.8-0.4-1.2-0.8-2-1.2c-0.4-0.4-1.2-0.8-1.6-1.6c-0.4-0.4-0.8-1.2-1.2-2c-0.8-1.2-0.8-2-0.8-2.8s0-1.6,0-2.4s0.4-1.6,0.8-2    c0.4-0.8,0.8-1.2,1.2-2c0.4-0.8,1.2-1.2,1.6-1.6c0.8-0.4,1.6-0.8,2.4-1.2c0.8-0.4,1.6-0.4,2.8-0.4c0.4,0,1.2,0,1.6,0    c0.4,0,1.2,0,1.6,0c0.8,0,1.6,0,2.8,0.4c0.8,0,2,0.4,2.8,0.4s1.2,0.4,2,0.4c0.8,0.4,1.6,0.4,2,0.4l2.8,0.8l0.4-2.8l1.2-8.4l0.4-2    l-2-0.8c-0.8-0.4-1.2-0.4-2-0.4c-0.4,0-1.2-0.4-2-0.4s-1.6-0.4-2.4-0.4s-1.6-0.4-2.4-0.4h-0.8v-7.2V118h-2.8h-7.2h-2.4v2.4v8H160    c-1.6,0.4-3.2,1.2-4.4,2s-2.8,1.6-4,2.8c-1.2,1.2-2.4,2.4-3.2,3.6c-0.8,1.2-1.6,2.8-2.4,4c-0.8,1.6-1.2,3.2-1.6,4.8    c-0.4,1.6-0.4,3.2-0.4,5.2c0,1.2,0,2.8,0.4,4c0.4,1.2,0.8,2.8,1.2,4c0.4,1.2,1.2,2.4,2,3.2c0.8,1.2,1.6,2,2.8,2.8    c1.2,0.8,2.4,1.6,3.2,2.4c1.2,0.8,2.4,1.6,4,2.4c1.6,0.8,2.8,1.2,4.4,2c1.6,0.8,2.8,1.2,4.4,1.6c0.8,0.4,1.6,0.4,2,0.8    c0.8,0.4,1.2,0.8,2,1.2s1.2,0.8,1.6,1.2c0.4,0.4,0.8,0.8,1.2,1.6c0.4,0.4,0.8,1.2,0.8,2c0.4,0.8,0.4,1.6,0.4,2.4s0,1.6,0,2.4    s-0.4,1.6-0.8,2c-0.4,0.8-0.8,1.2-1.6,1.6c-0.4,0.4-1.2,0.8-2,1.2s-1.2,0.8-2,0.8c-0.8,0.4-1.6,0.4-2.4,0.4s-1.2,0-2,0s-1.2,0-2,0    s-2,0-2.8-0.4c-0.8,0-2-0.4-2.8-0.4c-1.2-0.4-2.4-0.4-3.2-0.8c-1.2-0.4-2.4-0.8-3.2-1.2c-0.4,0-0.8-0.4-1.2-0.4    c-0.4-0.4-0.8-0.4-1.2-0.8l-3.2-1.6l-0.4,3.2l-0.4,10l-0.4,1.6l1.6,0.8c1.2,0.4,2.4,1.2,3.6,1.6c1.2,0.4,2.4,0.8,3.6,1.2    c1.2,0.4,2.4,0.8,4,0.8c1.2,0.4,2.8,0.4,4,0.8h0.8v7.6v2.4h2.4h7.6h2.4v-2.4v-8h0.8c1.6-0.4,3.2-1.2,4.8-2s2.8-1.6,4-2.8    s2.4-2.4,3.2-3.6c0.8-1.2,1.6-2.8,2.4-4c0.8-1.6,1.2-3.2,1.6-4.8c0.4-1.6,0.4-3.2,0.4-4.8C189.6,180.8,189.6,179.6,189.2,178.4z" data-original="#000000" class="active-path" data-old_color="#ffc15e" fill="#ffc15e"/>
	</g>
</g><g>
	<g>
		<path d="M182,296.4h-31.2c-3.6,0-6.4,2.8-6.4,6.4c0,3.6,2.8,6.4,6.4,6.4H182c3.6,0,6.4-2.8,6.4-6.4    C188.4,299.2,185.6,296.4,182,296.4z" data-original="#000000" class="active-path" data-old_color="#ffc15e" fill="#ffc15e"/>
	</g>
</g><g>
	<g>
		<path d="M173.2,27.2H160c-3.6,0-6.4,2.8-6.4,6.4c0,3.6,2.8,6.4,6.4,6.4h13.2c3.6,0,6.4-2.8,6.4-6.4    C179.6,30,176.8,27.2,173.2,27.2z" data-original="#000000" class="active-path" data-old_color="#ffc15e" fill="#ffc15e"/>
	</g>
</g></g> </svg>
